<?xml version="1.0" standalone="no"?>
<!DOCTYPE svg PUBLIC "-//W3C//DTD SVG 20010904//EN"
 "http://www.w3.org/TR/2001/REC-SVG-20010904/DTD/svg10.dtd">
<svg version="1.0" xmlns="http://www.w3.org/2000/svg"
 width="279.000000pt" height="146.000000pt" viewBox="0 0 279.000000 146.000000"
 preserveAspectRatio="xMidYMid meet">

<g transform="translate(0.000000,146.000000) scale(0.100000,-0.100000)"
fill="#000000" stroke="none">
<path d="M598 1217 l-227 -132 -1 -142 c0 -79 2 -143 4 -143 2 0 106 59 229
130 124 72 231 130 237 130 6 0 112 -58 236 -130 124 -71 227 -130 230 -130 2
0 4 64 4 143 l0 142 -227 130 c-124 72 -233 131 -242 132 -9 1 -118 -58 -243
-130z"/>
<path d="M728 952 l-98 -57 0 -63 c0 -57 2 -62 18 -53 9 5 56 32 105 60 l87
50 87 -50 c49 -28 96 -55 105 -60 16 -9 18 -4 18 53 l0 63 -101 58 c-56 31
-106 57 -113 57 -6 -1 -55 -27 -108 -58z"/>
<path d="M2207 834 c-4 -4 -7 -58 -7 -121 l0 -113 25 0 c14 0 25 5 25 12 0 9
3 9 12 0 19 -19 63 -14 85 11 61 67 13 164 -71 143 -23 -6 -25 -3 -28 31 -3
36 -23 54 -41 37z m107 -110 c35 -34 10 -89 -36 -82 -30 4 -39 65 -12 85 23
17 29 16 48 -3z"/>
<path d="M1740 710 l0 -110 25 0 c23 0 24 3 27 67 l3 66 50 -66 c35 -47 57
-67 73 -67 21 0 22 3 22 110 0 103 -1 110 -20 110 -17 0 -19 -8 -22 -72 l-3
-73 -55 72 c-39 51 -62 72 -77 73 -22 0 -23 -2 -23 -110z"/>
<path d="M2016 749 c-36 -28 -37 -89 -1 -124 53 -54 145 -16 145 60 0 74 -84
111 -144 64z m86 -26 c34 -31 17 -83 -27 -83 -43 0 -61 53 -29 84 20 20 33 20
56 -1z"/>
<path d="M2420 702 c0 -54 4 -72 18 -85 21 -19 45 -21 73 -7 13 7 19 7 19 0 0
-5 9 -10 20 -10 18 0 20 7 20 85 0 78 -2 85 -20 85 -17 0 -20 -7 -20 -52 0
-64 -10 -81 -41 -76 -22 3 -24 8 -27 66 -3 54 -6 62 -22 62 -18 0 -20 -7 -20
-68z"/>
<path d="M632 678 l3 -62 103 -58 103 -59 102 58 102 59 3 62 c2 34 0 62 -3
62 -3 0 -49 -25 -101 -55 -53 -30 -100 -55 -105 -55 -6 0 -52 25 -104 55 -51
30 -96 55 -99 55 -4 0 -6 -28 -4 -62z"/>
<path d="M372 574 l3 -146 232 -134 232 -134 233 134 233 134 3 146 3 145
-236 -135 -235 -136 -235 136 -236 135 3 -145z"/>
</g>
</svg>
